<svg xmlns="http://www.w3.org/2000/svg" width="15px" height="15px" viewBox="0 0 32 32"><title>infographic info graph infochart pentagonal chart</title><g id="infographic_info_graph_infochart_pentagonal_chart" data-name="infographic info graph infochart pentagonal chart"><path d="M30.947,12.664a1.259,1.259,0,0,0-.36-.477l-14-10a1,1,0,0,0-1.163,0l-14,10a1.243,1.243,0,0,0-.361.477v.008a1.08,1.08,0,0,0-.011.626l5,16a1.44,1.44,0,0,0,.322.477A1.079,1.079,0,0,0,7,30H25.005a1.186,1.186,0,0,0,.632-.225,1.381,1.381,0,0,0,.321-.477l5-16A1.159,1.159,0,0,0,30.947,12.664ZM24.6,26.931l-2.275-2.78,2.585-8.271,3.54-1.264ZM3.549,14.616l3.54,1.264,2.585,8.271L7.4,26.931ZM17,11.088,22.13,14.75,17,16.582Zm-2,5.494L9.87,14.75,15,11.088Zm-.672,1.882L11.19,22.3,9.448,16.722ZM16,19.58,18.8,23H13.2Zm1.673-1.116,4.88-1.742L20.81,22.3Zm6.752-4.533L17,8.631V4.943L27.867,12.7ZM15,8.631l-7.424,5.3L4.133,12.7,15,4.943ZM11.564,25h8.873l2.456,3H9.108Z"/></g></svg>