<svg id="svg" version="1.1" xmlns="http://www.w3.org/2000/svg" xmlns:xlink="http://www.w3.org/1999/xlink" width="30" height="30" viewBox="0, 0, 400,400"><g id="svgg"><path id="path0" d="M159.641 125.993 C 109.141 208.300,112.280 203.068,113.908 202.234 C 114.530 201.915,125.762 196.865,138.867 191.011 C 151.973 185.157,167.002 178.442,172.266 176.088 C 177.529 173.735,187.197 169.420,193.750 166.501 C 200.303 163.581,205.797 161.082,205.958 160.946 C 206.120 160.811,206.208 135.870,206.154 105.522 L 206.055 50.344 159.641 125.993 M116.467 225.637 C 118.475 228.412,139.453 257.448,163.086 290.161 L 206.055 349.638 206.154 312.243 C 206.209 291.676,206.121 274.720,205.959 274.563 C 205.602 274.219,114.089 221.096,113.342 220.800 C 113.054 220.685,114.460 222.862,116.467 225.637 " stroke="none" fill="#ffffff" fill-rule="evenodd"></path><path id="path1" d="M186.328 0.242 C 86.484 8.752,11.505 81.631,0.706 180.664 C 0.011 187.040,0.015 213.007,0.711 219.336 C 12.216 323.824,96.111 399.790,200.000 399.790 C 324.538 399.790,417.957 289.123,397.258 166.113 C 382.473 78.245,311.485 11.534,221.484 0.929 C 216.492 0.341,191.010 -0.157,186.328 0.242 M253.072 126.089 C 278.717 167.922,299.699 202.314,299.698 202.517 C 299.697 202.886,206.742 257.031,206.109 257.031 C 205.012 257.031,112.535 202.873,112.728 202.344 C 113.062 201.425,206.030 49.998,206.250 50.015 C 206.357 50.023,227.427 84.257,253.072 126.089 M159.734 247.429 C 185.123 262.164,206.071 274.219,206.284 274.219 C 206.496 274.219,227.598 262.077,253.177 247.237 C 278.755 232.398,299.737 220.313,299.802 220.382 C 299.949 220.537,206.523 349.949,206.250 349.969 C 206.105 349.980,123.347 235.629,113.882 222.339 C 111.858 219.497,107.368 217.040,159.734 247.429 " stroke="none" fill="#647cec" fill-rule="evenodd"></path><path id="path2" d="M206.250 209.020 L 206.250 257.059 207.129 256.590 C 215.883 251.927,300.290 202.480,299.525 202.463 C 299.249 202.457,279.863 193.882,256.445 183.406 C 233.027 172.931,212.153 163.600,210.059 162.671 L 206.250 160.982 206.250 209.020 " stroke="none" fill="#849cec" fill-rule="evenodd"></path><path id="path3" d="" stroke="none" fill="#96a9f3" fill-rule="evenodd"></path><path id="path4" d="M206.168 105.581 L 206.055 160.966 193.359 166.649 C 186.377 169.774,176.797 174.061,172.070 176.174 C 167.344 178.288,152.227 185.059,138.477 191.221 C 124.727 197.384,113.257 202.437,112.988 202.450 C 112.181 202.490,111.380 202.016,159.504 229.954 L 206.055 256.978 206.154 208.917 C 206.233 170.734,206.353 160.896,206.740 161.054 C 207.008 161.163,227.939 170.513,253.254 181.831 C 278.569 193.150,299.335 202.352,299.401 202.280 C 299.466 202.207,278.968 168.662,253.850 127.734 C 228.731 86.807,207.753 52.617,207.231 51.758 L 206.282 50.195 206.168 105.581 M252.734 247.660 L 206.445 274.556 206.346 312.138 C 206.249 348.768,206.264 349.696,206.969 348.786 C 207.366 348.272,228.133 319.551,253.118 284.961 C 278.102 250.371,298.811 221.763,299.137 221.387 C 300.297 220.051,298.522 221.055,252.734 247.660 " stroke="none" fill="#acbcf4" fill-rule="evenodd"></path></g></svg>