<svg xmlns="http://www.w3.org/2000/svg" width="15px" height="15px" viewBox="0 0 32 32"><title>infographic info graph infochart item connections</title><g id="infographic_info_graph_infochart_item_connections" data-name="infographic info graph infochart item connections"><path d="M28,22.142V20a5.007,5.007,0,0,0-5-5H17V5.413l2.293,2.293a1,1,0,1,0,1.414-1.414l-4-4a1.014,1.014,0,0,0-.326-.216,1,1,0,0,0-.764,0,1.014,1.014,0,0,0-.326.216l-4,4a1,1,0,1,0,1.414,1.414L15,5.413V15H9a5.007,5.007,0,0,0-5,5v2.142a4,4,0,1,0,2,0V20a3,3,0,0,1,3-3h6v5.143a4,4,0,1,0,2,0V17h6a3,3,0,0,1,3,3v2.142a4,4,0,1,0,2,0ZM7,26a2,2,0,1,1-2-2A2,2,0,0,1,7,26Zm11,0a2,2,0,1,1-2-2A2,2,0,0,1,18,26Zm9,2a2,2,0,1,1,2-2A2,2,0,0,1,27,28Z"/></g></svg>